<svg width="16" height="16" viewBox="0 0 16 16" fill="none" xmlns="http://www.w3.org/2000/svg">
<g clip-path="url(#clip0_17_1461)">
<path d="M4.00065 11.9887C2.96532 11.9573 2.34732 11.842 1.91998 11.414C1.33398 10.8287 1.33398 9.88533 1.33398 8C1.33398 6.11467 1.33398 5.17133 1.91998 4.586C2.50532 4 3.44865 4 5.33398 4H10.6673C12.5527 4 13.496 4 14.0813 4.586C14.6673 5.17133 14.6673 6.11467 14.6673 8C14.6673 9.88533 14.6673 10.8287 14.0813 11.414C13.654 11.842 13.0367 11.9573 12.0007 11.9887" stroke="black"/>
<path d="M6.00065 6.66699H4.00065M12.6673 10.0003H3.33398" stroke="black" stroke-linecap="round"/>
<path d="M12.5 10.0002C12.5 9.86756 12.4473 9.74038 12.3536 9.64661C12.2598 9.55284 12.1326 9.50017 12 9.50017C11.8674 9.50017 11.7402 9.55284 11.6464 9.64661C11.5527 9.74038 11.5 9.86756 11.5 10.0002H12.5ZM4.5 10.0002C4.5 9.86756 4.44732 9.74038 4.35355 9.64661C4.25979 9.55284 4.13261 9.50017 4 9.50017C3.86739 9.50017 3.74022 9.55284 3.64645 9.64661C3.55268 9.74038 3.5 9.86756 3.5 10.0002H4.5ZM11.5 10.6668C11.5 11.6235 11.4987 12.2908 11.4313 12.7948C11.3653 13.2842 11.2447 13.5428 11.0607 13.7275L11.7673 14.4342C12.1693 14.0335 12.3413 13.5275 12.4227 12.9275C12.5013 12.3422 12.5 11.5955 12.5 10.6668H11.5ZM8 15.1668C8.92867 15.1668 9.67533 15.1682 10.2613 15.0895C10.8613 15.0082 11.3667 14.8362 11.768 14.4348L11.06 13.7268C10.8753 13.9115 10.6167 14.0315 10.1267 14.0975C9.62333 14.1648 8.956 14.1662 7.99933 14.1662L8 15.1668ZM8 1.8335C8.95667 1.8335 9.62467 1.83483 10.128 1.90216C10.6173 1.96816 10.876 2.08883 11.0607 2.27283L11.7673 1.56616C11.3667 1.16416 10.8607 0.992164 10.2607 0.911498C9.67533 0.832164 8.92867 0.833498 8 0.833498V1.8335ZM8 0.833498C7.07133 0.833498 6.32467 0.832164 5.73867 0.911498C5.13867 0.991498 4.63333 1.16483 4.232 1.5655L4.94 2.2735C5.12467 2.08883 5.38334 1.96883 5.87334 1.90283C6.376 1.8355 7.044 1.83416 8.00067 1.83416L8 0.833498ZM3.5 10.6668C3.5 11.5955 3.49867 12.3422 3.578 12.9282C3.658 13.5282 3.83133 14.0335 4.232 14.4348L4.94 13.7268C4.75533 13.5422 4.63533 13.2835 4.56933 12.7935C4.502 12.2902 4.50067 11.6228 4.50067 10.6662L3.5 10.6668ZM8 14.1668C7.04333 14.1668 6.37533 14.1655 5.872 14.0982C5.38267 14.0322 5.124 13.9115 4.93933 13.7275L4.23267 14.4342C4.63333 14.8362 5.13933 15.0082 5.73933 15.0895C6.32467 15.1682 7.07133 15.1668 8 15.1668V14.1668ZM12.488 3.98483C12.4573 2.95683 12.3493 2.14683 11.768 1.5655L11.06 2.2735C11.3333 2.54683 11.4567 2.97283 11.488 4.01616L12.488 3.98483ZM4.51133 4.0155C4.54267 2.97216 4.66533 2.54683 4.93933 2.27283L4.23267 1.56616C3.65067 2.14683 3.54267 2.95683 3.512 3.98483L4.51133 4.0155ZM12.5 10.6668V10.0002H11.5V10.6668H12.5ZM4.5 10.6668V10.0002H3.5V10.6668H4.5Z" fill="black"/>
<path d="M11.3346 7.33333C11.7028 7.33333 12.0013 7.03486 12.0013 6.66667C12.0013 6.29848 11.7028 6 11.3346 6C10.9664 6 10.668 6.29848 10.668 6.66667C10.668 7.03486 10.9664 7.33333 11.3346 7.33333Z" fill="black"/>
</g>
<defs>
<clipPath id="clip0_17_1461">
<rect width="16" height="16" fill="white"/>
</clipPath>
</defs>
</svg>
